<svg width="167" height="40" viewBox="0 0 167 40" fill="none" xmlns="http://www.w3.org/2000/svg">
<path d="M0.3125 3.4375C1.5 3.71875 2.5625 3.9375 3.5 4.09375C4.46875 4.21875 5.28125 4.3125 5.9375 4.375C6.71875 4.46875 7.40625 4.5 8 4.46875C8.75 4.4375 9.6875 4.32812 10.8125 4.14062C11.9375 3.95312 13.125 3.76562 14.375 3.57812C15.625 3.39062 16.8594 3.23437 18.0781 3.10938C19.2969 2.98438 20.3594 2.96875 21.2656 3.0625C22.1719 3.15625 23.125 3.375 24.125 3.71875C25.125 4.03125 26.0625 4.46875 26.9375 5.03125C27.8125 5.5625 28.5625 6.21875 29.1875 7C29.8438 7.78125 30.25 8.6875 30.4062 9.71875C30.5625 10.7188 30.4688 11.7969 30.125 12.9531C29.7812 14.0781 29.2344 15.1875 28.4844 16.2812C27.7344 17.3438 26.7969 18.3281 25.6719 19.2344C24.5469 20.1406 23.2969 20.875 21.9219 21.4375C20.8281 21.8438 19.6406 22.1562 18.3594 22.375C17.2656 22.5625 15.9844 22.6875 14.5156 22.75C13.0781 22.7812 11.5469 22.625 9.92188 22.2812C9.70312 23.1875 9.57812 24.0312 9.54688 24.8125C9.54688 25.5625 9.57812 26.2344 9.64062 26.8281C9.73438 27.5156 9.85938 28.1406 10.0156 28.7031C10.2031 29.2656 10.4375 29.9219 10.7188 30.6719C10.9688 31.2969 11.25 32.0625 11.5625 32.9688C11.9062 33.8438 12.3125 34.8281 12.7812 35.9219C12.2188 35.9219 11.6719 35.9375 11.1406 35.9688C10.6094 35.9688 10.125 35.9844 9.6875 36.0156C9.1875 36.0469 8.71875 36.0781 8.28125 36.1094C7.78125 36.1406 7.21875 36.2031 6.59375 36.2969C6.0625 36.3594 5.39062 36.4531 4.57812 36.5781C3.79688 36.7031 2.90625 36.8594 1.90625 37.0469C2.5625 36.1094 3.07812 35.25 3.45312 34.4688C3.85938 33.6562 4.15625 32.9531 4.34375 32.3594C4.5625 31.6719 4.70312 31.0469 4.76562 30.4844C4.79688 30.0156 4.79688 29.1875 4.76562 28C4.76562 26.8125 4.75 25.4375 4.71875 23.875C4.6875 22.3125 4.64062 20.6719 4.57812 18.9531C4.51562 17.2344 4.4375 15.625 4.34375 14.125C4.25 12.5938 4.14062 11.2812 4.01562 10.1875C3.92188 9.09375 3.82812 8.375 3.73438 8.03125C3.60938 7.625 3.39062 7.1875 3.07812 6.71875C2.82812 6.3125 2.46875 5.84375 2 5.3125C1.5625 4.75 1 4.125 0.3125 3.4375ZM10.0156 12.6719C9.98438 12.9844 9.96875 13.3125 9.96875 13.6562C9.96875 14.3125 10.0156 15.1562 10.1094 16.1875C10.3281 16.7188 10.5938 17.1562 10.9062 17.5C11.25 17.8438 11.6094 18.1094 11.9844 18.2969C12.3906 18.4844 12.7969 18.6094 13.2031 18.6719C13.6094 18.7344 14.0156 18.7656 14.4219 18.7656C15.3594 18.7344 16.3438 18.5156 17.375 18.1094C18.75 17.5156 19.7188 16.6719 20.2812 15.5781C20.8438 14.4844 21.1406 13.3594 21.1719 12.2031C21.2031 11.0469 21 9.98438 20.5625 9.01562C20.1562 8.04688 19.6562 7.39063 19.0625 7.04688C18.5625 6.82813 17.9219 6.73438 17.1406 6.76562C16.4531 6.79687 15.5938 6.96875 14.5625 7.28125C13.5312 7.59375 12.2656 8.15625 10.7656 8.96875C10.6094 9.53125 10.4844 10.0312 10.3906 10.4688C10.2969 10.9062 10.2188 11.2969 10.1562 11.6406C10.0938 12.0156 10.0469 12.3594 10.0156 12.6719ZM55.1364 39.064H50.0004V23.704C50.0004 21.368 49.7284 19.688 49.1844 18.664C48.4484 17.448 47.1684 16.84 45.3444 16.84C43.3284 16.84 41.7764 17.672 40.6884 19.336C39.7604 20.84 39.2964 22.728 39.2964 25V39.064H34.1604V0.855999H39.2964V15.304C39.9364 14.248 40.8644 13.448 42.0804 12.904C43.2644 12.328 44.5284 12.04 45.8724 12.04C49.2324 12.04 51.6484 13.064 53.1204 15.112C54.4644 16.936 55.1364 19.736 55.1364 23.512V39.064ZM77.0458 39.304V36.76C75.4778 38.808 73.2218 39.832 70.2778 39.832C67.0778 39.832 64.7098 38.936 63.1738 37.144C62.0858 35.832 61.5418 34.232 61.5418 32.344C61.5418 25.816 66.3418 22.552 75.9418 22.552H76.6618V21.688C76.6618 18.552 75.2058 16.984 72.2938 16.984C69.6698 16.984 67.0778 17.672 64.5178 19.048V14.344C66.9498 13.096 69.6378 12.472 72.5818 12.472C75.6538 12.472 77.8938 13.192 79.3018 14.632C80.8058 16.2 81.5578 18.632 81.5578 21.928V33.112C81.5578 36.056 81.6538 38.12 81.8458 39.304H77.0458ZM76.6618 27.016H75.6538C73.1578 27.016 71.2378 27.24 69.8938 27.688C67.7498 28.392 66.6778 29.784 66.6778 31.864C66.6778 34.168 68.0058 35.32 70.6618 35.32C74.6618 35.32 76.6618 32.888 76.6618 28.024V27.016ZM110.21 39.256H105.218V23.176C105.218 19.048 103.714 16.984 100.706 16.984C98.658 16.984 97.106 17.8 96.05 19.432C95.186 20.84 94.754 22.648 94.754 24.856V39.256H89.762V19.72C89.762 18.472 89.73 17.304 89.666 16.216C89.634 15.096 89.586 14.04 89.522 13.048H94.322V15.688C95.89 13.544 98.21 12.472 101.282 12.472C107.234 12.472 110.21 15.784 110.21 22.408V39.256ZM128.615 16.6C126.439 16.6 124.823 17.576 123.767 19.528C122.871 21.128 122.423 23.304 122.423 26.056C122.423 32.168 124.487 35.224 128.615 35.224C130.599 35.224 132.167 34.232 133.319 32.248C134.247 30.552 134.711 28.44 134.711 25.912C134.711 23.384 134.247 21.272 133.319 19.576C132.199 17.592 130.631 16.6 128.615 16.6ZM139.559 39.304H134.711V36.904C133.111 38.888 130.919 39.88 128.135 39.88C124.647 39.88 121.943 38.584 120.023 35.992C118.231 33.464 117.335 30.152 117.335 26.056C117.335 21.832 118.167 18.504 119.831 16.072C121.655 13.352 124.423 11.992 128.135 11.992C130.695 11.992 132.887 13.048 134.711 15.16V0.759997H139.559V39.304ZM161.421 39.304V36.76C159.853 38.808 157.597 39.832 154.653 39.832C151.453 39.832 149.085 38.936 147.549 37.144C146.461 35.832 145.917 34.232 145.917 32.344C145.917 25.816 150.717 22.552 160.317 22.552H161.037V21.688C161.037 18.552 159.581 16.984 156.669 16.984C154.045 16.984 151.453 17.672 148.893 19.048V14.344C151.325 13.096 154.013 12.472 156.957 12.472C160.029 12.472 162.269 13.192 163.677 14.632C165.181 16.2 165.933 18.632 165.933 21.928V33.112C165.933 36.056 166.029 38.12 166.221 39.304H161.421ZM161.037 27.016H160.029C157.533 27.016 155.613 27.24 154.269 27.688C152.125 28.392 151.053 29.784 151.053 31.864C151.053 34.168 152.381 35.32 155.037 35.32C159.037 35.32 161.037 32.888 161.037 28.024V27.016Z" fill="#242424"/>
</svg>
